<?xml version="1.0" encoding="UTF-8"?>
<svg width="19px" height="15px" viewBox="0 0 19 15" version="1.1" xmlns="http://www.w3.org/2000/svg" xmlns:xlink="http://www.w3.org/1999/xlink">
    <defs>
        <path d="M9.16814997,0 C11.1883919,0 13.1112897,0.656107783 14.6899402,1.84876017 C15.0424715,2.11509355 15.1123488,2.61678252 14.8460154,2.96931384 C14.579682,3.32184517 14.0779931,3.39172241 13.7254617,3.12538903 C12.6677242,2.32628047 11.4244015,1.81950121 10.1011428,1.65692561 L10.1,3.3 C10.1,3.7418278 9.7418278,4.1 9.3,4.1 C8.89215895,4.1 8.55559842,3.79481185 8.50623314,3.4003503 L8.5,3.3 L8.50006844,1.62908285 C6.30301845,1.82124637 4.37509062,2.9521726 3.11972359,4.61842288 L5.07428727,5.54311139 C5.47370258,5.73200082 5.64436753,6.20891604 5.4554781,6.60833135 C5.28232946,6.97446205 4.86715915,7.1483789 4.49151503,7.02932951 L4.39025815,6.98952218 L2.29382753,5.99825783 C1.84846513,6.96247783 1.6,8.03629783 1.6,9.16814997 C1.6,10.5381522 1.96412688,11.8520679 2.64109305,13.0016061 L4.04683909,12.1373514 C4.42321105,11.9059298 4.91592508,12.0234352 5.14734667,12.3998072 C5.35948314,12.7448148 5.27842393,13.1875821 4.97353865,13.4372343 L4.88489083,13.5003148 L2.8351336,14.7606587 C2.46339501,14.9892313 1.9781612,14.877415 1.74329094,14.5119851 C1.6966733,14.4708751 1.65446241,14.4233239 1.61758972,14.3698944 C0.570072969,12.8520149 0,11.051684 0,9.16814997 C0,4.10472056 4.10472056,0 9.16814997,0 Z M17.9799182,6.6289813 C18.2155075,7.44790655 18.3362999,8.30039248 18.3362999,9.16814997 C18.3362999,11.0257244 17.7818747,12.8026347 16.7610969,14.307935 L16.7383193,14.3399038 C16.728168,14.3534307 16.7176514,14.3665552 16.7067919,14.379272 L16.7610969,14.307935 C16.7333629,14.3488332 16.7025081,14.3863508 16.669066,14.4203855 C16.6571037,14.4326438 16.6438926,14.445218 16.630322,14.4572781 C16.6170115,14.4690615 16.6041197,14.479784 16.5909495,14.4900551 C16.5784277,14.4998367 16.5649575,14.5096861 16.5512265,14.5190816 C16.5332311,14.5314032 16.5152545,14.5426587 16.496911,14.5531554 C16.4861656,14.55928 16.4747301,14.5654668 16.4631642,14.5713653 C16.4484638,14.5788853 16.4341644,14.5856351 16.4196969,14.5919488 C16.3990927,14.6009241 16.3776108,14.6092348 16.3558289,14.6166057 C16.3489204,14.6189667 16.3419505,14.6212181 16.3349531,14.6233733 C16.3108722,14.630777 16.2864651,14.6370627 16.2618109,14.6421928 C16.2485336,14.6449508 16.2351527,14.64738 16.2217166,14.6494691 C16.2036012,14.6523079 16.1851781,14.6545335 16.1666819,14.6561192 C16.1467397,14.6577917 16.1270508,14.6587421 16.1073285,14.6589654 C16.094955,14.6591396 16.0825389,14.6589932 16.0701171,14.6585563 C16.0474626,14.657735 16.0244976,14.6559473 16.0015895,14.6531573 C15.9887382,14.6516078 15.9763838,14.6497982 15.9640531,14.6476929 C15.9466137,14.6447209 15.9284894,14.6409992 15.9104573,14.6366309 C15.8918186,14.632094 15.8737994,14.6270334 15.8558982,14.6213103 C15.8436014,14.6174089 15.8312348,14.6131249 15.818941,14.6085207 C15.7713064,14.5906197 15.7248032,14.5679969 15.6799523,14.5404192 L15.7556217,14.5816305 C15.7421071,14.575189 15.7287097,14.5683371 15.7154459,14.5610715 L15.6799523,14.5404192 L13.630195,13.2800753 L13.5415472,13.2169949 C13.2366619,12.9673427 13.1556027,12.5245754 13.3677392,12.1795677 C13.5991608,11.8031958 14.0918748,11.6856903 14.4682468,11.9171119 L14.4682468,11.9171119 L15.8337344,12.7559842 C16.4218419,11.6662243 16.7362999,10.4413601 16.7362999,9.16814997 C16.7362999,8.45041116 16.6366033,7.74680756 16.4422813,7.07133036 C16.3201299,6.64672365 16.5653185,6.20348869 16.9899252,6.08133737 C17.4145319,5.95918605 17.8577669,6.20437459 17.9799182,6.6289813 Z M16.9042211,4.08199389 L10.9918743,10.1948452 C10.1523264,11.0628646 8.76806964,11.0859453 7.90005026,10.2463974 C7.7631094,10.1139482 7.64406587,9.96416997 7.54594393,9.80086763 C6.91489804,8.75063091 7.25471936,7.38768207 8.30495607,6.75663619 C8.46171019,6.66244881 8.62950879,6.5880048 8.8045329,6.53499845 L16.9042211,4.08199389 Z M11.8096329,7.19132214 L9.23930919,7.97060619 C9.18262481,7.98777315 9.12828053,8.01188304 9.07751318,8.04238714 C8.73737711,8.24676151 8.62732051,8.68817444 8.83169488,9.02831052 C8.86250408,9.07958564 8.89988243,9.12661436 8.94288035,9.16820192 C9.19065169,9.40784624 9.57238406,9.42364277 9.83779541,9.21976463 L9.9136789,9.15201512 L11.8096329,7.19132214 Z" id="path-1"></path>
    </defs>
    <g id="-" stroke="none" stroke-width="1" fill="none" fill-rule="evenodd">
        <g id="1.-Группы-пользователей-Copy-9" transform="translate(-173.000000, -314.000000)">
            <g id="Brans/Color/Primary" transform="translate(173.000000, 314.000000)">
                <mask id="mask-2" fill="white">
                    <use xlink:href="#path-1"></use>
                </mask>
                <use id="Mask" fill="#979797" fill-rule="nonzero" xlink:href="#path-1"></use>
                <g id="Group" mask="url(#mask-2)" fill="#FFFFFF">
                    <g id="Rectangle">
                        <rect x="0" y="0" width="20" height="16"></rect>
                    </g>
                </g>
            </g>
        </g>
    </g>
</svg>
