<svg xmlns="http://www.w3.org/2000/svg" width="20" height="20" viewBox="0 0 20 20"><defs><clipPath id="hgjaa"><path fill="#fff" d="M10 20c5.523 0 10-4.477 10-10S15.523 0 10 0 0 4.477 0 10s4.477 10 10 10z"/></clipPath></defs><g><g><g opacity=".3"><path fill="none" stroke="#bacede" stroke-miterlimit="20" stroke-width="2" d="M10 20c5.523 0 10-4.477 10-10S15.523 0 10 0 0 4.477 0 10s4.477 10 10 10z" clip-path="url(&quot;#hgjaa&quot;)"/></g><g><path fill="none" stroke="#9db9d1" stroke-miterlimit="20" d="M10 7v7"/></g><g><path fill="none" stroke="#9db9d1" stroke-miterlimit="20" stroke-width="1.5" d="M7.5 7v8"/></g><g><path fill="none" stroke="#9db9d1" stroke-miterlimit="20" stroke-width="1.5" d="M12.5 7v8"/></g><g><path fill="none" stroke="#9db9d1" stroke-miterlimit="20" d="M14.5 6.5h-9"/></g><g><path fill="none" stroke="#9db9d1" stroke-miterlimit="20" d="M13 14.5H7"/></g><g><path fill="none" stroke="#9db9d1" stroke-miterlimit="20" d="M11.5 5.5h-3"/></g></g></g></svg>