<?xml version="1.0" encoding="UTF-8"?>
<svg width="15px" height="15px" viewBox="0 0 15 15" version="1.1" xmlns="http://www.w3.org/2000/svg" xmlns:xlink="http://www.w3.org/1999/xlink">
    <defs>
        <linearGradient x1="88.3830897%" y1="-14.3360915%" x2="-24.228276%" y2="167.654801%" id="linearGradient-1">
            <stop stop-color="#FFFFFF" stop-opacity="0.5" offset="0%"></stop>
            <stop stop-color="#5084D1" stop-opacity="0.5" offset="100%"></stop>
        </linearGradient>
        <path d="M6.3181239,0.0952643727 C8.18497029,-0.204026801 10.0780434,0.207117711 11.6549011,1.25495908 C15.0985758,3.54496429 16.0373176,8.20808836 13.7479715,11.6509036 C12.6392393,13.3185672 10.9467789,14.4545026 8.98243929,14.8500322 C8.48430687,14.9506357 7.98371296,15 7.4868406,15 C6.11935738,15 4.78003495,14.6244798 3.59379469,13.8984292 L3.59379469,13.8984292 L0.791986669,14.6632095 C0.554510048,14.7269583 0.305751529,14.6494696 0.148889196,14.462647 C-0.00800244168,14.2758243 -0.0423756002,14.0146184 0.0620039314,13.7946909 C0.659475652,12.5256624 0.761364375,11.0879163 0.348241794,9.74640866 C0.248228503,9.42775262 0.168874272,9.09972176 0.111995925,8.77418109 C-0.229889531,6.80031244 0.216990833,4.81211789 1.37008869,3.17442447 C2.5244466,1.53737558 4.246914,0.447025251 6.22063073,0.104639194 C6.25312845,0.0990143013 6.28562618,0.0958795954 6.3181239,0.0952643727 Z M7.51724172,10.010084 L7.41567119,10.0151705 C7.28099343,10.0332141 7.15169027,10.0953408 7.05627579,10.1899937 C7.00001172,10.2457682 6.95628985,10.3139823 6.92502227,10.3945487 C6.89378399,10.4689244 6.8750293,10.5495199 6.8750293,10.6301153 C6.8750293,10.7107108 6.89378399,10.7912772 6.92502227,10.865682 C6.95626055,10.9400577 7.00001172,11.0082427 7.05627579,11.0702369 C7.11878165,11.1260114 7.1875293,11.1694045 7.26251875,11.2004162 C7.33750821,11.2313988 7.41876875,11.25 7.5000293,11.25 C7.58128985,11.25 7.66190571,11.2313988 7.73689516,11.2004162 C7.81188461,11.1694336 7.88001688,11.1260405 7.94313813,11.0702369 C7.99940219,11.0082427 8.04312406,10.9400577 8.07439164,10.865682 C8.10562992,10.7913063 8.12438461,10.7107108 8.12438461,10.6301153 C8.12438461,10.5495199 8.10562992,10.4689244 8.07439164,10.3945487 C8.04315337,10.3139532 7.99940219,10.2457682 7.94313813,10.1899937 C7.91189985,10.1652018 7.88063227,10.1341902 7.84315219,10.115618 C7.81191392,10.0908261 7.77440454,10.0728353 7.73689516,10.0598145 C7.69938578,10.0406029 7.66190571,10.0288318 7.61815454,10.0226121 L7.61815454,10.0226121 L7.51724172,10.010084 Z M7.5,3.75 C7.15438625,3.75 6.875,4.02709961 6.875,4.36988467 L6.875,4.36988467 L6.875,8.08919271 L6.88176678,8.18089214 C6.92634484,8.48006944 7.18580568,8.70907738 7.5,8.70907738 C7.84561375,8.70907738 8.125,8.43136742 8.125,8.08919271 L8.125,8.08919271 L8.125,4.36988467 L8.11823388,4.27818524 C8.07366001,3.97900794 7.81422096,3.75 7.5,3.75 Z" id="path-2"></path>
        <linearGradient x1="88.3830897%" y1="-14.3360915%" x2="-24.228276%" y2="167.654801%" id="linearGradient-3">
            <stop stop-color="#FFFFFF" stop-opacity="0.5" offset="0%"></stop>
            <stop stop-color="#FFFFFF" stop-opacity="0.5" offset="100%"></stop>
        </linearGradient>
    </defs>
    <g id="-" stroke="none" stroke-width="1" fill="none" fill-rule="evenodd">
        <g id="1.-Группы-пользователей-Copy-9" transform="translate(-175.000000, -482.000000)">
            <g id="Combined-Shape-Copy" transform="translate(175.000000, 482.000000)">
                <use fill="#FFFFFF" xlink:href="#path-2"></use>
                <use fill-opacity="0.5" fill="url(#linearGradient-3)" xlink:href="#path-2"></use>
            </g>
        </g>
    </g>
</svg>
