<?xml version="1.0" encoding="UTF-8"?>
<svg width="15px" height="12px" viewBox="0 0 15 12" version="1.1" xmlns="http://www.w3.org/2000/svg" xmlns:xlink="http://www.w3.org/1999/xlink">
    <g id="-" stroke="none" stroke-width="1" fill="none" fill-rule="evenodd">
        <g id="1.-Группы-пользователей-Copy-9" transform="translate(-175.000000, -595.000000)" fill="#FFFFFF">
            <g id="Group-2" transform="translate(175.000000, 595.000000)">
                <path d="M0,3 L14,3 C14.5522847,3 15,3.44771525 15,4 L15,11 C15,11.5522847 14.5522847,12 14,12 L1,12 C0.44771525,12 6.76353751e-17,11.5522847 0,11 L0,3 L0,3 Z" id="Rectangle"></path>
                <path d="M1,0 L5,0 C5.55228475,-1.01453063e-16 6,0.44771525 6,1 L6,2 L6,2 L0,2 L0,1 C-6.76353751e-17,0.44771525 0.44771525,1.01453063e-16 1,0 Z" id="Rectangle-Copy"></path>
            </g>
        </g>
    </g>
</svg>
