<?xml version="1.0" encoding="UTF-8"?>
<svg width="18px" height="15px" viewBox="0 0 18 15" version="1.1" xmlns="http://www.w3.org/2000/svg" xmlns:xlink="http://www.w3.org/1999/xlink">
    <defs>
        <path d="M16.2630212,11.0284222 C16.2933458,11.0569681 16.3228011,11.0864235 16.351347,11.1167481 C17.1973323,12.0154457 17.1973323,13.417457 16.351347,14.3161546 C15.5684569,15.1478258 14.2595963,15.1873706 13.4279251,14.4044805 L13.3395992,14.3161546 L13.3395992,14.3161546 C12.493614,13.417457 12.493614,12.0154457 13.3395992,11.1167481 C14.1224894,10.2850769 15.43135,10.245532 16.2630212,11.0284222 Z M5.37139136,6.70171067 C5.78958183,6.70171067 6.12859218,7.06184439 6.12859218,7.50609184 C6.12859218,7.91616642 5.83973129,8.25457012 5.46637302,8.30420575 L5.37139136,8.31047302 L3.20957577,8.31047302 C2.27335695,8.31047302 1.51440165,9.116718 1.51440165,10.1112716 C1.51440165,11.0560975 2.19935881,11.8309749 3.07054513,11.9061006 L3.20957577,11.9120702 L11.0207829,11.9120702 C11.4389733,11.9120702 11.7779837,12.2722039 11.7779837,12.7164513 C11.7779837,13.1265259 11.4891228,13.4649296 11.1157645,13.5145652 L11.0207829,13.5208325 L3.20957577,13.5208325 C1.43697602,13.5208325 0,11.9943201 0,10.1112716 C0,8.29099137 1.34277426,6.80387431 3.03347533,6.70675571 L3.20957577,6.70171067 L5.37139136,6.70171067 Z M10.3872243,5.4951389 C10.6633666,5.4951389 10.8872243,5.71899652 10.8872243,5.9951389 L10.8872243,9.01704479 C10.8872243,9.29318717 10.6633666,9.51704479 10.3872243,9.51704479 L7.60122016,9.51704479 C7.32507779,9.51704479 7.10122016,9.29318717 7.10122016,9.01704479 L7.10122016,5.9951389 C7.10122016,5.71899652 7.32507779,5.4951389 7.60122016,5.4951389 L10.3872243,5.4951389 Z M14.9404357,1.81006816 C16.6301864,1.81006816 18,3.26523335 18,5.06027059 C18,6.79340999 16.7230275,8.20971267 15.1140532,8.30532791 L14.9404357,8.31047302 L12.6286086,8.31047302 C12.2104182,8.31047302 11.8714078,7.9503393 11.8714078,7.50609184 C11.8714078,7.09601727 12.1602687,6.75761357 12.533627,6.70797794 L12.6286086,6.70171067 L14.9404357,6.70171067 C15.7938055,6.70171067 16.4855984,5.96681291 16.4855984,5.06027059 C16.4855984,4.20144102 15.8647094,3.49666364 15.0737582,3.42485558 L14.9404357,3.41883052 L7.10122016,3.41883052 C6.6830297,3.41883052 6.34401934,3.05869679 6.34401934,2.61444934 C6.34401934,2.20437476 6.63288023,1.86597106 7.0062385,1.81633543 L7.10122016,1.81006816 L14.9404357,1.81006816 Z M3.18468057,0.135932196 L3.20603477,0.157286395 L3.20603477,0.157286395 L5.19646137,2.2717343 C5.37770239,2.46426826 5.37770239,2.76463042 5.19646137,2.95716437 L3.20603477,5.07161228 C3.01675848,5.27268216 2.70032039,5.28224276 2.4992505,5.09296648 C2.49191905,5.08606504 2.48479774,5.07894373 2.4778963,5.07161228 L0.487469702,2.95716437 C0.306228679,2.76463042 0.306228679,2.46426826 0.487469702,2.2717343 L2.4778963,0.157286395 C2.66717259,-0.0437834901 2.98361068,-0.0533440908 3.18468057,0.135932196 Z" id="path-1"></path>
    </defs>
    <g id="-" stroke="none" stroke-width="1" fill="none" fill-rule="evenodd">
        <g id="1.-Группы-пользователей-Copy-9" transform="translate(-173.000000, -369.000000)">
            <g id="Group" transform="translate(173.000000, 369.000000)">
                <g id="Brans/Color/Primary" transform="translate(0.000000, 0.021227)">
                    <mask id="mask-2" fill="white">
                        <use xlink:href="#path-1"></use>
                    </mask>
                    <use id="Mask" fill="#000000" fill-rule="nonzero" xlink:href="#path-1"></use>
                    <g id="Group" mask="url(#mask-2)">
                        <g transform="translate(0.000000, -0.021227)" id="Brans/Color/Primary">
                            <rect id="Rectangle" fill="#FFFFFF" x="0" y="0" width="19" height="16"></rect>
                        </g>
                    </g>
                </g>
            </g>
        </g>
    </g>
</svg>
