<?xml version="1.0" encoding="UTF-8"?>
<svg width="16px" height="15px" viewBox="0 0 16 15" version="1.1" xmlns="http://www.w3.org/2000/svg" xmlns:xlink="http://www.w3.org/1999/xlink">
    <defs>
        <path d="M7.68955057,0 C8.30120084,0 8.81848344,0.437593453 8.91959165,1.04065704 L8.91959165,1.04065704 L9.0345071,1.72156335 C9.21606697,1.78570747 9.39643097,1.85996246 9.57418572,1.94400214 L9.57418572,1.94400214 L10.1488717,1.5346756 C10.3586984,1.38366509 10.6087509,1.30310439 10.8702189,1.30310439 C11.2022452,1.30310439 11.515137,1.43313219 11.7511649,1.66916084 L11.7511649,1.66916084 L12.5862317,2.50433923 C13.0196923,2.93356133 13.0768782,3.60914039 12.7208252,4.10935594 L12.7208252,4.10935594 L12.3116088,4.68186951 C12.3889076,4.84614373 12.4588136,5.01509284 12.5206744,5.18730354 L12.5206744,5.18730354 L13.2156031,5.30515479 C13.8222523,5.40735053 14.2566914,5.92528724 14.249922,6.53748322 L14.249922,6.53748322 L14.249922,7.71490859 C14.249922,8.32645226 13.8122502,8.84373664 13.2092974,8.94495392 L13.2092974,8.94495392 L12.5153472,9.0606308 C12.4550084,9.22849274 12.384885,9.39733314 12.3055205,9.56541253 L12.3055205,9.56541253 L12.7151718,10.1406441 C13.0694854,10.6383591 13.0129518,11.3133945 12.5805783,11.7456608 L12.5805783,11.7456608 L11.7455115,12.5808392 C11.5094837,12.8168678 11.1965919,12.9468956 10.8646743,12.9468956 C10.6012494,12.9468956 10.3502183,12.8663349 10.1386522,12.7140198 L10.1386522,12.7140198 L9.56798877,12.3061066 C9.40371511,12.3834057 9.23476658,12.4533119 9.06255648,12.515173 L9.06255648,12.515173 L8.94470561,13.2102127 C8.84370613,13.8124065 8.3263148,14.25 7.71477326,14.25 L7.71477326,14.25 L6.53224217,14.25 C5.92070063,14.25 5.40341801,13.8124065 5.30220108,13.2094517 L5.30220108,13.2094517 L5.18641589,12.5146294 C5.02301198,12.4558124 4.8638481,12.3904724 4.71033761,12.3191528 L4.71033761,12.3191528 L4.1260844,12.7350025 C3.91636642,12.8859043 3.66631388,12.966465 3.4048459,12.966465 C3.0728196,12.966465 2.75992775,12.8364372 2.52389991,12.6004086 L2.52389991,12.6004086 L1.68883315,11.7652302 C1.25537249,11.3361168 1.19818655,10.660429 1.55423963,10.1602135 L1.55423963,10.1602135 L1.95910732,9.5970497 C1.8801777,9.43244934 1.80929321,9.26415253 1.74699752,9.09346388 L1.74699752,9.09346388 L1.03945754,8.97278595 C0.437591943,8.87178612 0,8.35450172 0,7.74295807 L0,7.74295807 L0,6.56314087 C0,5.95159722 0.437591943,5.43431281 1.04054474,5.33309556 L1.04054474,5.33309556 L1.72155741,5.2181797 C1.78243976,5.04499054 1.85136728,4.87528039 1.92801384,4.71035387 L1.92801384,4.71035387 L1.51216557,4.12609863 C1.15785198,3.62838365 1.21449434,2.95334815 1.64675908,2.52108192 L1.64675908,2.52108192 L2.4837828,1.68677331 C2.71720139,1.45020104 3.03020195,1.31995582 3.36548979,1.31995582 C3.62891472,1.31995582 3.87994572,1.40040778 4.0915119,1.55272292 L4.0915119,1.55272292 L4.65576091,1.95911407 C4.82046944,1.88007545 4.98865697,1.80929946 5.15923628,1.74700355 L5.15923628,1.74700355 L5.28002254,1.03946113 C5.3809133,0.437593453 5.8981959,0 6.50973744,0 L6.50973744,0 Z M7.12497542,4.35440826 C5.5972631,4.35440826 4.35439324,5.59728241 4.35439324,7.125 C4.35439324,8.65271759 5.5972631,9.89559174 7.12497542,9.89559174 C8.65268774,9.89559174 9.89555759,8.65271759 9.89555759,7.125 C9.89555759,5.59728241 8.65268774,4.35440826 7.12497542,4.35440826 Z" id="path-1"></path>
    </defs>
    <g id="-" stroke="none" stroke-width="1" fill="none" fill-rule="evenodd">
        <g id="1.-Группы-пользователей-Copy-9" transform="translate(-174.000000, -650.000000)">
            <g id="Group" transform="translate(173.000000, 650.000000)">
                <g id="Brans/Color/Primary" transform="translate(1.900000, 0.000000)">
                    <mask id="mask-2" fill="white">
                        <use xlink:href="#path-1"></use>
                    </mask>
                    <use id="Mask" fill="#000000" fill-rule="nonzero" transform="translate(7.125000, 7.125000) scale(-1, 1) translate(-7.125000, -7.125000) " xlink:href="#path-1"></use>
                    <g id="Group" mask="url(#mask-2)" fill="#FFFFFF">
                        <g id="Brans/Color/Primary">
                            <rect id="Rectangle" x="0" y="0" width="19.25" height="15.25"></rect>
                        </g>
                    </g>
                </g>
            </g>
        </g>
    </g>
</svg>
