<?xml version="1.0" encoding="UTF-8"?>
<svg width="15px" height="14px" viewBox="0 0 15 14" version="1.1" xmlns="http://www.w3.org/2000/svg" xmlns:xlink="http://www.w3.org/1999/xlink">
    <defs>
        <path d="M10,11.9333333 C10.5522847,11.9333333 11,12.3810486 11,12.9333333 C11,13.4856181 10.5522847,13.9333333 10,13.9333333 L5,13.9333333 C4.44771525,13.9333333 4,13.4856181 4,12.9333333 C4,12.3810486 4.44771525,11.9333333 5,11.9333333 L10,11.9333333 Z M14,5 C14.5522847,5 15,5.44771525 15,6 L15,9 C15,9.55228475 14.5522847,10 14,10 L1,10 C0.44771525,10 0,9.55228475 0,9 L0,6 C0,5.44771525 0.44771525,5 1,5 L14,5 Z M14,0 C14.5522847,0 15,0.335786438 15,0.75 L15,2.25 C15,2.66421356 14.5522847,3 14,3 L1,3 C0.44771525,3 0,2.66421356 0,2.25 L0,0.75 C0,0.335786438 0.44771525,0 1,0 L14,0 Z" id="path-1"></path>
    </defs>
    <g id="-" stroke="none" stroke-width="1" fill="none" fill-rule="evenodd">
        <g id="1.-Группы-пользователей-Copy-9" transform="translate(-175.000000, -426.000000)">
            <g id="Group" transform="translate(173.000000, 426.000000)">
                <g id="Brans/Color/Primary" transform="translate(2.000000, -0.000000)">
                    <mask id="mask-2" fill="white">
                        <use xlink:href="#path-1"></use>
                    </mask>
                    <use id="Mask" fill="#000000" fill-rule="nonzero" xlink:href="#path-1"></use>
                    <g id="Group" mask="url(#mask-2)">
                        <g transform="translate(-2.000000, 0.000000)">
                            <rect id="Rectangle" fill="#FFFFFF" x="0" y="0" width="20" height="16"></rect>
                        </g>
                    </g>
                </g>
            </g>
        </g>
    </g>
</svg>
