<?xml version="1.0" encoding="UTF-8"?>
<svg width="55px" height="56px" viewBox="0 0 55 56" version="1.1" xmlns="http://www.w3.org/2000/svg" xmlns:xlink="http://www.w3.org/1999/xlink">
    <title>Icons / Files / Pdf Copy 7</title>
    <defs>
        <rect id="path-1" x="0" y="0" width="46" height="56" rx="2"></rect>
        <filter x="-15.2%" y="-8.9%" width="130.4%" height="125.0%" filterUnits="objectBoundingBox" id="filter-2">
            <feOffset dx="0" dy="2" in="SourceAlpha" result="shadowOffsetOuter1"></feOffset>
            <feGaussianBlur stdDeviation="2" in="shadowOffsetOuter1" result="shadowBlurOuter1"></feGaussianBlur>
            <feComposite in="shadowBlurOuter1" in2="SourceAlpha" operator="out" result="shadowBlurOuter1"></feComposite>
            <feColorMatrix values="0 0 0 0 0   0 0 0 0 0   0 0 0 0 0  0 0 0 0.0485959353 0" type="matrix" in="shadowBlurOuter1"></feColorMatrix>
        </filter>
    </defs>
    <g id="Icons-/-Files-/-Pdf-Copy-7" stroke="none" stroke-width="1" fill="none" fill-rule="evenodd">
        <g id="Group-5">
            <g id="Group-7" transform="translate(9.000000, 0.000000)">
                <g id="Rectangle">
                    <use fill="black" fill-opacity="1" filter="url(#filter-2)" xlink:href="#path-1"></use>
                    <rect stroke="#EBEFF6" stroke-width="1" stroke-linejoin="square" fill="#FFFFFF" fill-rule="evenodd" x="0.5" y="0.5" width="45" height="55" rx="2"></rect>
                </g>
                <g id="Group-2" transform="translate(8.000000, 6.909091)">
                    <rect id="Rectangle" fill="#EAEAEA" x="0" y="0.0909090909" width="32" height="45"></rect>
                    <circle id="Oval" fill="#FFFFFF" cx="26" cy="6.09090909" r="4"></circle>
                    <polygon id="Triangle" fill="#FFFFFF" points="13 28.0909091 26 45.0909091 0 45.0909091"></polygon>
                    <polygon id="Triangle-Copy" fill="#FFFFFF" points="22 32.0909091 32 45.0909091 27 45.0909091 19.463482 35.3883825"></polygon>
                </g>
            </g>
            <path d="M19,47.1666667 C19,47.625 18.64375,48 18.2083333,48 L0.791666667,48 C0.35625,48 0,47.625 0,47.1666667 L0,38.8333333 C0,38.375 0.35625,38 0.791666667,38 L18.2083333,38 C18.64375,38 19,38.375 19,38.8333333 L19,47.1666667 Z" id="Path" fill="#A528C8" fill-rule="nonzero"></path>
        </g>
        <text id="BMP" font-family="Rubik-Medium, Rubik" font-size="7" font-weight="400" line-spacing="7" letter-spacing="0.252661" fill="#FFFFFF">
            <tspan x="2" y="46.5">BMP</tspan>
        </text>
    </g>
</svg>