<?xml version="1.0" encoding="UTF-8"?>
<svg width="55px" height="56px" viewBox="0 0 55 56" version="1.1" xmlns="http://www.w3.org/2000/svg" xmlns:xlink="http://www.w3.org/1999/xlink">
    <title>Icons / Files / Pdf Copy 3</title>
    <defs>
        <rect id="path-1" x="0" y="0" width="46" height="56" rx="2"></rect>
        <filter x="-15.2%" y="-8.9%" width="130.4%" height="125.0%" filterUnits="objectBoundingBox" id="filter-2">
            <feOffset dx="0" dy="2" in="SourceAlpha" result="shadowOffsetOuter1"></feOffset>
            <feGaussianBlur stdDeviation="2" in="shadowOffsetOuter1" result="shadowBlurOuter1"></feGaussianBlur>
            <feComposite in="shadowBlurOuter1" in2="SourceAlpha" operator="out" result="shadowBlurOuter1"></feComposite>
            <feColorMatrix values="0 0 0 0 0   0 0 0 0 0   0 0 0 0 0  0 0 0 0.0485959353 0" type="matrix" in="shadowBlurOuter1"></feColorMatrix>
        </filter>
    </defs>
    <g id="Icons-/-Files-/-Pdf-Copy-3" stroke="none" stroke-width="1" fill="none" fill-rule="evenodd">
        <g id="Rectangle" transform="translate(9.000000, 0.000000)">
            <use fill="black" fill-opacity="1" filter="url(#filter-2)" xlink:href="#path-1"></use>
            <rect stroke="#EBEFF6" stroke-width="1" stroke-linejoin="square" fill="#FFFFFF" fill-rule="evenodd" x="0.5" y="0.5" width="45" height="55" rx="2"></rect>
        </g>
        <g id="Group-2" transform="translate(17.000000, 7.090909)" fill="#EAEAEA" stroke="#EAEAEA" stroke-width="0.3">
            <g id="Group" transform="translate(0.000000, 0.909091)">
                <rect id="Rectangle-Copy-3" x="9.15" y="13.2369565" width="23.7" height="3.43913043"></rect>
                <rect id="Rectangle-Copy-19" x="4.15" y="19.7804348" width="16.7" height="3.43913043"></rect>
                <rect id="Rectangle-Copy-21" x="9.15" y="26.323913" width="23.7" height="3.43913043"></rect>
                <rect id="Rectangle-Copy-25" x="4.15" y="32.8673913" width="20.7" height="3.43913043"></rect>
                <rect id="Rectangle-Copy-26" x="0.15" y="0.15" width="20.7" height="3.43913043"></rect>
                <rect id="Rectangle-Copy-27" x="0.15" y="39.4108696" width="16.7" height="3.43913043"></rect>
                <rect id="Rectangle-Copy-28" x="4.15" y="6.69347826" width="16.7" height="3.43913043"></rect>
            </g>
        </g>
        <path d="M19,47.1666667 C19,47.625 18.64375,48 18.2083333,48 L0.791666667,48 C0.35625,48 0,47.625 0,47.1666667 L0,38.8333333 C0,38.375 0.35625,38 0.791666667,38 L18.2083333,38 C18.64375,38 19,38.375 19,38.8333333 L19,47.1666667 Z" id="Path" fill="#1FA330" fill-rule="nonzero"></path>
        <text id="CSV" font-family="Rubik-Medium, Rubik" font-size="7" font-weight="400" line-spacing="7" letter-spacing="0.252661" fill="#FFFFFF">
            <tspan x="1" y="46.5"> CSV</tspan>
        </text>
    </g>
</svg>