<?xml version="1.0" encoding="UTF-8"?>
<svg width="55px" height="56px" viewBox="0 0 55 56" version="1.1" xmlns="http://www.w3.org/2000/svg" xmlns:xlink="http://www.w3.org/1999/xlink">
    <title>Icons / Files / Pdf Copy 6</title>
    <defs>
        <rect id="path-1" x="0" y="0" width="46" height="56" rx="2"></rect>
        <filter x="-15.2%" y="-8.9%" width="130.4%" height="125.0%" filterUnits="objectBoundingBox" id="filter-2">
            <feOffset dx="0" dy="2" in="SourceAlpha" result="shadowOffsetOuter1"></feOffset>
            <feGaussianBlur stdDeviation="2" in="shadowOffsetOuter1" result="shadowBlurOuter1"></feGaussianBlur>
            <feComposite in="shadowBlurOuter1" in2="SourceAlpha" operator="out" result="shadowBlurOuter1"></feComposite>
            <feColorMatrix values="0 0 0 0 0   0 0 0 0 0   0 0 0 0 0  0 0 0 0.0485959353 0" type="matrix" in="shadowBlurOuter1"></feColorMatrix>
        </filter>
    </defs>
    <g id="Icons-/-Files-/-Pdf-Copy-6" stroke="none" stroke-width="1" fill="none" fill-rule="evenodd">
        <g id="Rectangle" transform="translate(9.000000, 0.000000)">
            <use fill="black" fill-opacity="1" filter="url(#filter-2)" xlink:href="#path-1"></use>
            <rect stroke="#EBEFF6" stroke-width="1" stroke-linejoin="square" fill="#FFFFFF" fill-rule="evenodd" x="0.5" y="0.5" width="45" height="55" rx="2"></rect>
        </g>
        <g id="Group" opacity="0.200000003" transform="translate(17.000000, 7.000000)">
            <rect id="Rectangle" fill="#D8D8D8" x="0" y="0" width="2" height="2"></rect>
            <rect id="Rectangle-Copy-34" fill="#D8D8D8" x="0" y="4" width="2" height="2"></rect>
            <rect id="Rectangle-Copy-16" fill="#D8D8D8" x="2" y="2" width="2" height="2"></rect>
            <rect id="Rectangle-Copy-35" fill="#D8D8D8" x="2" y="6" width="2" height="2"></rect>
            <rect id="Rectangle-Copy-2" fill="#D8D8D8" x="4" y="0" width="2" height="2"></rect>
            <rect id="Rectangle-Copy-36" fill="#D8D8D8" x="4" y="4" width="2" height="2"></rect>
            <rect id="Rectangle-Copy-18" fill="#D8D8D8" x="6" y="2" width="2" height="2"></rect>
            <rect id="Rectangle-Copy-37" fill="#D8D8D8" x="6" y="6" width="2" height="2"></rect>
            <rect id="Rectangle-Copy" fill="#FFFFFF" x="2" y="0" width="2" height="2"></rect>
            <rect id="Rectangle-Copy-38" fill="#FFFFFF" x="2" y="4" width="2" height="2"></rect>
            <rect id="Rectangle-Copy-19" fill="#FFFFFF" x="4" y="2" width="2" height="2"></rect>
            <rect id="Rectangle-Copy-39" fill="#FFFFFF" x="4" y="6" width="2" height="2"></rect>
            <rect id="Rectangle-Copy-33" fill="#FFFFFF" x="0" y="2" width="2" height="2"></rect>
            <rect id="Rectangle-Copy-40" fill="#FFFFFF" x="0" y="6" width="2" height="2"></rect>
            <rect id="Rectangle-Copy-3" fill="#FFFFFF" x="6" y="0" width="2" height="2"></rect>
            <rect id="Rectangle-Copy-41" fill="#FFFFFF" x="6" y="4" width="2" height="2"></rect>
            <rect id="Rectangle-Copy-20" fill="#FFFFFF" x="8" y="2" width="2" height="2"></rect>
            <rect id="Rectangle-Copy-42" fill="#FFFFFF" x="8" y="6" width="2" height="2"></rect>
            <rect id="Rectangle-Copy-5" fill="#D8D8D8" x="8" y="0" width="2" height="2"></rect>
            <rect id="Rectangle-Copy-43" fill="#D8D8D8" x="8" y="4" width="2" height="2"></rect>
            <rect id="Rectangle-Copy-21" fill="#D8D8D8" x="10" y="2" width="2" height="2"></rect>
            <rect id="Rectangle-Copy-44" fill="#D8D8D8" x="10" y="6" width="2" height="2"></rect>
            <rect id="Rectangle-Copy-4" fill="#FFFFFF" x="10" y="0" width="2" height="2"></rect>
            <rect id="Rectangle-Copy-45" fill="#FFFFFF" x="10" y="4" width="2" height="2"></rect>
            <rect id="Rectangle-Copy-22" fill="#FFFFFF" x="12" y="2" width="2" height="2"></rect>
            <rect id="Rectangle-Copy-46" fill="#FFFFFF" x="12" y="6" width="2" height="2"></rect>
            <rect id="Rectangle-Copy-7" fill="#D8D8D8" x="12" y="0" width="2" height="2"></rect>
            <rect id="Rectangle-Copy-47" fill="#D8D8D8" x="12" y="4" width="2" height="2"></rect>
            <rect id="Rectangle-Copy-23" fill="#D8D8D8" x="14" y="2" width="2" height="2"></rect>
            <rect id="Rectangle-Copy-48" fill="#D8D8D8" x="14" y="6" width="2" height="2"></rect>
            <rect id="Rectangle-Copy-6" fill="#FFFFFF" x="14" y="0" width="2" height="2"></rect>
            <rect id="Rectangle-Copy-49" fill="#FFFFFF" x="14" y="4" width="2" height="2"></rect>
            <rect id="Rectangle-Copy-24" fill="#FFFFFF" x="16" y="2" width="2" height="2"></rect>
            <rect id="Rectangle-Copy-50" fill="#FFFFFF" x="16" y="6" width="2" height="2"></rect>
            <rect id="Rectangle-Copy-9" fill="#D8D8D8" x="16" y="0" width="2" height="2"></rect>
            <rect id="Rectangle-Copy-51" fill="#D8D8D8" x="16" y="4" width="2" height="2"></rect>
            <rect id="Rectangle-Copy-25" fill="#D8D8D8" x="18" y="2" width="2" height="2"></rect>
            <rect id="Rectangle-Copy-52" fill="#D8D8D8" x="18" y="6" width="2" height="2"></rect>
            <rect id="Rectangle-Copy-8" fill="#FFFFFF" x="18" y="0" width="2" height="2"></rect>
            <rect id="Rectangle-Copy-53" fill="#FFFFFF" x="18" y="4" width="2" height="2"></rect>
            <rect id="Rectangle-Copy-26" fill="#FFFFFF" x="20" y="2" width="2" height="2"></rect>
            <rect id="Rectangle-Copy-54" fill="#FFFFFF" x="20" y="6" width="2" height="2"></rect>
            <rect id="Rectangle-Copy-11" fill="#D8D8D8" x="20" y="0" width="2" height="2"></rect>
            <rect id="Rectangle-Copy-55" fill="#D8D8D8" x="20" y="4" width="2" height="2"></rect>
            <rect id="Rectangle-Copy-27" fill="#D8D8D8" x="22" y="2" width="2" height="2"></rect>
            <rect id="Rectangle-Copy-56" fill="#D8D8D8" x="22" y="6" width="2" height="2"></rect>
            <rect id="Rectangle-Copy-10" fill="#FFFFFF" x="22" y="0" width="2" height="2"></rect>
            <rect id="Rectangle-Copy-57" fill="#FFFFFF" x="22" y="4" width="2" height="2"></rect>
            <rect id="Rectangle-Copy-28" fill="#FFFFFF" x="24" y="2" width="2" height="2"></rect>
            <rect id="Rectangle-Copy-58" fill="#FFFFFF" x="24" y="6" width="2" height="2"></rect>
            <rect id="Rectangle-Copy-13" fill="#D8D8D8" x="24" y="0" width="2" height="2"></rect>
            <rect id="Rectangle-Copy-59" fill="#D8D8D8" x="24" y="4" width="2" height="2"></rect>
            <rect id="Rectangle-Copy-29" fill="#D8D8D8" x="26" y="2" width="2" height="2"></rect>
            <rect id="Rectangle-Copy-60" fill="#D8D8D8" x="26" y="6" width="2" height="2"></rect>
            <rect id="Rectangle-Copy-12" fill="#FFFFFF" x="26" y="0" width="2" height="2"></rect>
            <rect id="Rectangle-Copy-61" fill="#FFFFFF" x="26" y="4" width="2" height="2"></rect>
            <rect id="Rectangle-Copy-30" fill="#FFFFFF" x="28" y="2" width="2" height="2"></rect>
            <rect id="Rectangle-Copy-62" fill="#FFFFFF" x="28" y="6" width="2" height="2"></rect>
            <rect id="Rectangle-Copy-15" fill="#D8D8D8" x="28" y="0" width="2" height="2"></rect>
            <rect id="Rectangle-Copy-63" fill="#D8D8D8" x="28" y="4" width="2" height="2"></rect>
            <rect id="Rectangle-Copy-31" fill="#D8D8D8" x="30" y="2" width="2" height="2"></rect>
            <rect id="Rectangle-Copy-64" fill="#D8D8D8" x="30" y="6" width="2" height="2"></rect>
            <rect id="Rectangle-Copy-14" fill="#FFFFFF" x="30" y="0" width="2" height="2"></rect>
            <rect id="Rectangle-Copy-65" fill="#FFFFFF" x="30" y="4" width="2" height="2"></rect>
            <rect id="Rectangle-Copy-32" fill="#FFFFFF" x="32" y="2" width="2" height="2"></rect>
            <rect id="Rectangle-Copy-66" fill="#FFFFFF" x="32" y="6" width="2" height="2"></rect>
            <rect id="Rectangle-Copy-17" fill="#D8D8D8" x="32" y="0" width="2" height="2"></rect>
            <rect id="Rectangle-Copy-67" fill="#D8D8D8" x="32" y="4" width="2" height="2"></rect>
            <rect id="Rectangle-Copy-101" fill="#D8D8D8" x="0" y="8" width="2" height="2"></rect>
            <rect id="Rectangle-Copy-100" fill="#D8D8D8" x="2" y="10" width="2" height="2"></rect>
            <rect id="Rectangle-Copy-99" fill="#D8D8D8" x="4" y="8" width="2" height="2"></rect>
            <rect id="Rectangle-Copy-98" fill="#D8D8D8" x="6" y="10" width="2" height="2"></rect>
            <rect id="Rectangle-Copy-97" fill="#FFFFFF" x="2" y="8" width="2" height="2"></rect>
            <rect id="Rectangle-Copy-96" fill="#FFFFFF" x="4" y="10" width="2" height="2"></rect>
            <rect id="Rectangle-Copy-95" fill="#FFFFFF" x="0" y="10" width="2" height="2"></rect>
            <rect id="Rectangle-Copy-94" fill="#FFFFFF" x="6" y="8" width="2" height="2"></rect>
            <rect id="Rectangle-Copy-93" fill="#FFFFFF" x="8" y="10" width="2" height="2"></rect>
            <rect id="Rectangle-Copy-92" fill="#D8D8D8" x="8" y="8" width="2" height="2"></rect>
            <rect id="Rectangle-Copy-91" fill="#D8D8D8" x="10" y="10" width="2" height="2"></rect>
            <rect id="Rectangle-Copy-90" fill="#FFFFFF" x="10" y="8" width="2" height="2"></rect>
            <rect id="Rectangle-Copy-89" fill="#FFFFFF" x="12" y="10" width="2" height="2"></rect>
            <rect id="Rectangle-Copy-88" fill="#D8D8D8" x="12" y="8" width="2" height="2"></rect>
            <rect id="Rectangle-Copy-87" fill="#D8D8D8" x="14" y="10" width="2" height="2"></rect>
            <rect id="Rectangle-Copy-86" fill="#FFFFFF" x="14" y="8" width="2" height="2"></rect>
            <rect id="Rectangle-Copy-85" fill="#FFFFFF" x="16" y="10" width="2" height="2"></rect>
            <rect id="Rectangle-Copy-84" fill="#D8D8D8" x="16" y="8" width="2" height="2"></rect>
            <rect id="Rectangle-Copy-83" fill="#D8D8D8" x="18" y="10" width="2" height="2"></rect>
            <rect id="Rectangle-Copy-82" fill="#FFFFFF" x="18" y="8" width="2" height="2"></rect>
            <rect id="Rectangle-Copy-81" fill="#FFFFFF" x="20" y="10" width="2" height="2"></rect>
            <rect id="Rectangle-Copy-80" fill="#D8D8D8" x="20" y="8" width="2" height="2"></rect>
            <rect id="Rectangle-Copy-79" fill="#D8D8D8" x="22" y="10" width="2" height="2"></rect>
            <rect id="Rectangle-Copy-78" fill="#FFFFFF" x="22" y="8" width="2" height="2"></rect>
            <rect id="Rectangle-Copy-77" fill="#FFFFFF" x="24" y="10" width="2" height="2"></rect>
            <rect id="Rectangle-Copy-76" fill="#D8D8D8" x="24" y="8" width="2" height="2"></rect>
            <rect id="Rectangle-Copy-75" fill="#D8D8D8" x="26" y="10" width="2" height="2"></rect>
            <rect id="Rectangle-Copy-74" fill="#FFFFFF" x="26" y="8" width="2" height="2"></rect>
            <rect id="Rectangle-Copy-73" fill="#FFFFFF" x="28" y="10" width="2" height="2"></rect>
            <rect id="Rectangle-Copy-72" fill="#D8D8D8" x="28" y="8" width="2" height="2"></rect>
            <rect id="Rectangle-Copy-71" fill="#D8D8D8" x="30" y="10" width="2" height="2"></rect>
            <rect id="Rectangle-Copy-70" fill="#FFFFFF" x="30" y="8" width="2" height="2"></rect>
            <rect id="Rectangle-Copy-69" fill="#FFFFFF" x="32" y="10" width="2" height="2"></rect>
            <rect id="Rectangle-Copy-68" fill="#D8D8D8" x="32" y="8" width="2" height="2"></rect>
            <rect id="Rectangle-Copy-135" fill="#D8D8D8" x="0" y="12" width="2" height="2"></rect>
            <rect id="Rectangle-Copy-134" fill="#D8D8D8" x="2" y="14" width="2" height="2"></rect>
            <rect id="Rectangle-Copy-133" fill="#D8D8D8" x="4" y="12" width="2" height="2"></rect>
            <rect id="Rectangle-Copy-132" fill="#D8D8D8" x="6" y="14" width="2" height="2"></rect>
            <rect id="Rectangle-Copy-131" fill="#FFFFFF" x="2" y="12" width="2" height="2"></rect>
            <rect id="Rectangle-Copy-130" fill="#FFFFFF" x="4" y="14" width="2" height="2"></rect>
            <rect id="Rectangle-Copy-129" fill="#FFFFFF" x="0" y="14" width="2" height="2"></rect>
            <rect id="Rectangle-Copy-128" fill="#FFFFFF" x="6" y="12" width="2" height="2"></rect>
            <rect id="Rectangle-Copy-127" fill="#FFFFFF" x="8" y="14" width="2" height="2"></rect>
            <rect id="Rectangle-Copy-126" fill="#D8D8D8" x="8" y="12" width="2" height="2"></rect>
            <rect id="Rectangle-Copy-125" fill="#D8D8D8" x="10" y="14" width="2" height="2"></rect>
            <rect id="Rectangle-Copy-124" fill="#FFFFFF" x="10" y="12" width="2" height="2"></rect>
            <rect id="Rectangle-Copy-123" fill="#FFFFFF" x="12" y="14" width="2" height="2"></rect>
            <rect id="Rectangle-Copy-122" fill="#D8D8D8" x="12" y="12" width="2" height="2"></rect>
            <rect id="Rectangle-Copy-121" fill="#D8D8D8" x="14" y="14" width="2" height="2"></rect>
            <rect id="Rectangle-Copy-120" fill="#FFFFFF" x="14" y="12" width="2" height="2"></rect>
            <rect id="Rectangle-Copy-119" fill="#FFFFFF" x="16" y="14" width="2" height="2"></rect>
            <rect id="Rectangle-Copy-118" fill="#D8D8D8" x="16" y="12" width="2" height="2"></rect>
            <rect id="Rectangle-Copy-117" fill="#D8D8D8" x="18" y="14" width="2" height="2"></rect>
            <rect id="Rectangle-Copy-116" fill="#FFFFFF" x="18" y="12" width="2" height="2"></rect>
            <rect id="Rectangle-Copy-115" fill="#FFFFFF" x="20" y="14" width="2" height="2"></rect>
            <rect id="Rectangle-Copy-114" fill="#D8D8D8" x="20" y="12" width="2" height="2"></rect>
            <rect id="Rectangle-Copy-113" fill="#D8D8D8" x="22" y="14" width="2" height="2"></rect>
            <rect id="Rectangle-Copy-112" fill="#FFFFFF" x="22" y="12" width="2" height="2"></rect>
            <rect id="Rectangle-Copy-111" fill="#FFFFFF" x="24" y="14" width="2" height="2"></rect>
            <rect id="Rectangle-Copy-110" fill="#D8D8D8" x="24" y="12" width="2" height="2"></rect>
            <rect id="Rectangle-Copy-109" fill="#D8D8D8" x="26" y="14" width="2" height="2"></rect>
            <rect id="Rectangle-Copy-108" fill="#FFFFFF" x="26" y="12" width="2" height="2"></rect>
            <rect id="Rectangle-Copy-107" fill="#FFFFFF" x="28" y="14" width="2" height="2"></rect>
            <rect id="Rectangle-Copy-106" fill="#D8D8D8" x="28" y="12" width="2" height="2"></rect>
            <rect id="Rectangle-Copy-105" fill="#D8D8D8" x="30" y="14" width="2" height="2"></rect>
            <rect id="Rectangle-Copy-104" fill="#FFFFFF" x="30" y="12" width="2" height="2"></rect>
            <rect id="Rectangle-Copy-103" fill="#FFFFFF" x="32" y="14" width="2" height="2"></rect>
            <rect id="Rectangle-Copy-102" fill="#D8D8D8" x="32" y="12" width="2" height="2"></rect>
            <rect id="Rectangle-Copy-169" fill="#D8D8D8" x="0" y="16" width="2" height="2"></rect>
            <rect id="Rectangle-Copy-168" fill="#D8D8D8" x="2" y="18" width="2" height="2"></rect>
            <rect id="Rectangle-Copy-167" fill="#D8D8D8" x="4" y="16" width="2" height="2"></rect>
            <rect id="Rectangle-Copy-166" fill="#D8D8D8" x="6" y="18" width="2" height="2"></rect>
            <rect id="Rectangle-Copy-165" fill="#FFFFFF" x="2" y="16" width="2" height="2"></rect>
            <rect id="Rectangle-Copy-164" fill="#FFFFFF" x="4" y="18" width="2" height="2"></rect>
            <rect id="Rectangle-Copy-163" fill="#FFFFFF" x="0" y="18" width="2" height="2"></rect>
            <rect id="Rectangle-Copy-162" fill="#FFFFFF" x="6" y="16" width="2" height="2"></rect>
            <rect id="Rectangle-Copy-161" fill="#FFFFFF" x="8" y="18" width="2" height="2"></rect>
            <rect id="Rectangle-Copy-160" fill="#D8D8D8" x="8" y="16" width="2" height="2"></rect>
            <rect id="Rectangle-Copy-159" fill="#D8D8D8" x="10" y="18" width="2" height="2"></rect>
            <rect id="Rectangle-Copy-158" fill="#FFFFFF" x="10" y="16" width="2" height="2"></rect>
            <rect id="Rectangle-Copy-157" fill="#FFFFFF" x="12" y="18" width="2" height="2"></rect>
            <rect id="Rectangle-Copy-156" fill="#D8D8D8" x="12" y="16" width="2" height="2"></rect>
            <rect id="Rectangle-Copy-155" fill="#D8D8D8" x="14" y="18" width="2" height="2"></rect>
            <rect id="Rectangle-Copy-154" fill="#FFFFFF" x="14" y="16" width="2" height="2"></rect>
            <rect id="Rectangle-Copy-153" fill="#FFFFFF" x="16" y="18" width="2" height="2"></rect>
            <rect id="Rectangle-Copy-152" fill="#D8D8D8" x="16" y="16" width="2" height="2"></rect>
            <rect id="Rectangle-Copy-151" fill="#D8D8D8" x="18" y="18" width="2" height="2"></rect>
            <rect id="Rectangle-Copy-150" fill="#FFFFFF" x="18" y="16" width="2" height="2"></rect>
            <rect id="Rectangle-Copy-149" fill="#FFFFFF" x="20" y="18" width="2" height="2"></rect>
            <rect id="Rectangle-Copy-148" fill="#D8D8D8" x="20" y="16" width="2" height="2"></rect>
            <rect id="Rectangle-Copy-147" fill="#D8D8D8" x="22" y="18" width="2" height="2"></rect>
            <rect id="Rectangle-Copy-146" fill="#FFFFFF" x="22" y="16" width="2" height="2"></rect>
            <rect id="Rectangle-Copy-145" fill="#FFFFFF" x="24" y="18" width="2" height="2"></rect>
            <rect id="Rectangle-Copy-144" fill="#D8D8D8" x="24" y="16" width="2" height="2"></rect>
            <rect id="Rectangle-Copy-143" fill="#D8D8D8" x="26" y="18" width="2" height="2"></rect>
            <rect id="Rectangle-Copy-142" fill="#FFFFFF" x="26" y="16" width="2" height="2"></rect>
            <rect id="Rectangle-Copy-141" fill="#FFFFFF" x="28" y="18" width="2" height="2"></rect>
            <rect id="Rectangle-Copy-140" fill="#D8D8D8" x="28" y="16" width="2" height="2"></rect>
            <rect id="Rectangle-Copy-139" fill="#D8D8D8" x="30" y="18" width="2" height="2"></rect>
            <rect id="Rectangle-Copy-138" fill="#FFFFFF" x="30" y="16" width="2" height="2"></rect>
            <rect id="Rectangle-Copy-137" fill="#FFFFFF" x="32" y="18" width="2" height="2"></rect>
            <rect id="Rectangle-Copy-136" fill="#D8D8D8" x="32" y="16" width="2" height="2"></rect>
            <rect id="Rectangle-Copy-203" fill="#D8D8D8" x="0" y="20" width="2" height="2"></rect>
            <rect id="Rectangle-Copy-202" fill="#D8D8D8" x="2" y="22" width="2" height="2"></rect>
            <rect id="Rectangle-Copy-201" fill="#D8D8D8" x="4" y="20" width="2" height="2"></rect>
            <rect id="Rectangle-Copy-200" fill="#D8D8D8" x="6" y="22" width="2" height="2"></rect>
            <rect id="Rectangle-Copy-199" fill="#FFFFFF" x="2" y="20" width="2" height="2"></rect>
            <rect id="Rectangle-Copy-198" fill="#FFFFFF" x="4" y="22" width="2" height="2"></rect>
            <rect id="Rectangle-Copy-197" fill="#FFFFFF" x="0" y="22" width="2" height="2"></rect>
            <rect id="Rectangle-Copy-196" fill="#FFFFFF" x="6" y="20" width="2" height="2"></rect>
            <rect id="Rectangle-Copy-195" fill="#FFFFFF" x="8" y="22" width="2" height="2"></rect>
            <rect id="Rectangle-Copy-194" fill="#D8D8D8" x="8" y="20" width="2" height="2"></rect>
            <rect id="Rectangle-Copy-193" fill="#D8D8D8" x="10" y="22" width="2" height="2"></rect>
            <rect id="Rectangle-Copy-192" fill="#FFFFFF" x="10" y="20" width="2" height="2"></rect>
            <rect id="Rectangle-Copy-191" fill="#FFFFFF" x="12" y="22" width="2" height="2"></rect>
            <rect id="Rectangle-Copy-190" fill="#D8D8D8" x="12" y="20" width="2" height="2"></rect>
            <rect id="Rectangle-Copy-189" fill="#D8D8D8" x="14" y="22" width="2" height="2"></rect>
            <rect id="Rectangle-Copy-188" fill="#FFFFFF" x="14" y="20" width="2" height="2"></rect>
            <rect id="Rectangle-Copy-187" fill="#FFFFFF" x="16" y="22" width="2" height="2"></rect>
            <rect id="Rectangle-Copy-186" fill="#D8D8D8" x="16" y="20" width="2" height="2"></rect>
            <rect id="Rectangle-Copy-185" fill="#D8D8D8" x="18" y="22" width="2" height="2"></rect>
            <rect id="Rectangle-Copy-184" fill="#FFFFFF" x="18" y="20" width="2" height="2"></rect>
            <rect id="Rectangle-Copy-183" fill="#FFFFFF" x="20" y="22" width="2" height="2"></rect>
            <rect id="Rectangle-Copy-182" fill="#D8D8D8" x="20" y="20" width="2" height="2"></rect>
            <rect id="Rectangle-Copy-181" fill="#D8D8D8" x="22" y="22" width="2" height="2"></rect>
            <rect id="Rectangle-Copy-180" fill="#FFFFFF" x="22" y="20" width="2" height="2"></rect>
            <rect id="Rectangle-Copy-179" fill="#FFFFFF" x="24" y="22" width="2" height="2"></rect>
            <rect id="Rectangle-Copy-178" fill="#D8D8D8" x="24" y="20" width="2" height="2"></rect>
            <rect id="Rectangle-Copy-177" fill="#D8D8D8" x="26" y="22" width="2" height="2"></rect>
            <rect id="Rectangle-Copy-176" fill="#FFFFFF" x="26" y="20" width="2" height="2"></rect>
            <rect id="Rectangle-Copy-175" fill="#FFFFFF" x="28" y="22" width="2" height="2"></rect>
            <rect id="Rectangle-Copy-174" fill="#D8D8D8" x="28" y="20" width="2" height="2"></rect>
            <rect id="Rectangle-Copy-173" fill="#D8D8D8" x="30" y="22" width="2" height="2"></rect>
            <rect id="Rectangle-Copy-172" fill="#FFFFFF" x="30" y="20" width="2" height="2"></rect>
            <rect id="Rectangle-Copy-171" fill="#FFFFFF" x="32" y="22" width="2" height="2"></rect>
            <rect id="Rectangle-Copy-170" fill="#D8D8D8" x="32" y="20" width="2" height="2"></rect>
            <rect id="Rectangle-Copy-237" fill="#D8D8D8" x="0" y="24" width="2" height="2"></rect>
            <rect id="Rectangle-Copy-236" fill="#D8D8D8" x="2" y="26" width="2" height="2"></rect>
            <rect id="Rectangle-Copy-235" fill="#D8D8D8" x="4" y="24" width="2" height="2"></rect>
            <rect id="Rectangle-Copy-234" fill="#D8D8D8" x="6" y="26" width="2" height="2"></rect>
            <rect id="Rectangle-Copy-233" fill="#FFFFFF" x="2" y="24" width="2" height="2"></rect>
            <rect id="Rectangle-Copy-232" fill="#FFFFFF" x="4" y="26" width="2" height="2"></rect>
            <rect id="Rectangle-Copy-231" fill="#FFFFFF" x="0" y="26" width="2" height="2"></rect>
            <rect id="Rectangle-Copy-230" fill="#FFFFFF" x="6" y="24" width="2" height="2"></rect>
            <rect id="Rectangle-Copy-229" fill="#FFFFFF" x="8" y="26" width="2" height="2"></rect>
            <rect id="Rectangle-Copy-228" fill="#D8D8D8" x="8" y="24" width="2" height="2"></rect>
            <rect id="Rectangle-Copy-227" fill="#D8D8D8" x="10" y="26" width="2" height="2"></rect>
            <rect id="Rectangle-Copy-226" fill="#FFFFFF" x="10" y="24" width="2" height="2"></rect>
            <rect id="Rectangle-Copy-225" fill="#FFFFFF" x="12" y="26" width="2" height="2"></rect>
            <rect id="Rectangle-Copy-224" fill="#D8D8D8" x="12" y="24" width="2" height="2"></rect>
            <rect id="Rectangle-Copy-223" fill="#D8D8D8" x="14" y="26" width="2" height="2"></rect>
            <rect id="Rectangle-Copy-222" fill="#FFFFFF" x="14" y="24" width="2" height="2"></rect>
            <rect id="Rectangle-Copy-221" fill="#FFFFFF" x="16" y="26" width="2" height="2"></rect>
            <rect id="Rectangle-Copy-220" fill="#D8D8D8" x="16" y="24" width="2" height="2"></rect>
            <rect id="Rectangle-Copy-219" fill="#D8D8D8" x="18" y="26" width="2" height="2"></rect>
            <rect id="Rectangle-Copy-218" fill="#FFFFFF" x="18" y="24" width="2" height="2"></rect>
            <rect id="Rectangle-Copy-217" fill="#FFFFFF" x="20" y="26" width="2" height="2"></rect>
            <rect id="Rectangle-Copy-216" fill="#D8D8D8" x="20" y="24" width="2" height="2"></rect>
            <rect id="Rectangle-Copy-215" fill="#D8D8D8" x="22" y="26" width="2" height="2"></rect>
            <rect id="Rectangle-Copy-214" fill="#FFFFFF" x="22" y="24" width="2" height="2"></rect>
            <rect id="Rectangle-Copy-213" fill="#FFFFFF" x="24" y="26" width="2" height="2"></rect>
            <rect id="Rectangle-Copy-212" fill="#D8D8D8" x="24" y="24" width="2" height="2"></rect>
            <rect id="Rectangle-Copy-211" fill="#D8D8D8" x="26" y="26" width="2" height="2"></rect>
            <rect id="Rectangle-Copy-210" fill="#FFFFFF" x="26" y="24" width="2" height="2"></rect>
            <rect id="Rectangle-Copy-209" fill="#FFFFFF" x="28" y="26" width="2" height="2"></rect>
            <rect id="Rectangle-Copy-208" fill="#D8D8D8" x="28" y="24" width="2" height="2"></rect>
            <rect id="Rectangle-Copy-207" fill="#D8D8D8" x="30" y="26" width="2" height="2"></rect>
            <rect id="Rectangle-Copy-206" fill="#FFFFFF" x="30" y="24" width="2" height="2"></rect>
            <rect id="Rectangle-Copy-205" fill="#FFFFFF" x="32" y="26" width="2" height="2"></rect>
            <rect id="Rectangle-Copy-204" fill="#D8D8D8" x="32" y="24" width="2" height="2"></rect>
            <rect id="Rectangle-Copy-271" fill="#D8D8D8" x="0" y="28" width="2" height="2"></rect>
            <rect id="Rectangle-Copy-270" fill="#D8D8D8" x="2" y="30" width="2" height="2"></rect>
            <rect id="Rectangle-Copy-269" fill="#D8D8D8" x="4" y="28" width="2" height="2"></rect>
            <rect id="Rectangle-Copy-268" fill="#D8D8D8" x="6" y="30" width="2" height="2"></rect>
            <rect id="Rectangle-Copy-267" fill="#FFFFFF" x="2" y="28" width="2" height="2"></rect>
            <rect id="Rectangle-Copy-266" fill="#FFFFFF" x="4" y="30" width="2" height="2"></rect>
            <rect id="Rectangle-Copy-265" fill="#FFFFFF" x="0" y="30" width="2" height="2"></rect>
            <rect id="Rectangle-Copy-264" fill="#FFFFFF" x="6" y="28" width="2" height="2"></rect>
            <rect id="Rectangle-Copy-263" fill="#FFFFFF" x="8" y="30" width="2" height="2"></rect>
            <rect id="Rectangle-Copy-262" fill="#D8D8D8" x="8" y="28" width="2" height="2"></rect>
            <rect id="Rectangle-Copy-261" fill="#D8D8D8" x="10" y="30" width="2" height="2"></rect>
            <rect id="Rectangle-Copy-260" fill="#FFFFFF" x="10" y="28" width="2" height="2"></rect>
            <rect id="Rectangle-Copy-259" fill="#FFFFFF" x="12" y="30" width="2" height="2"></rect>
            <rect id="Rectangle-Copy-258" fill="#D8D8D8" x="12" y="28" width="2" height="2"></rect>
            <rect id="Rectangle-Copy-257" fill="#D8D8D8" x="14" y="30" width="2" height="2"></rect>
            <rect id="Rectangle-Copy-256" fill="#FFFFFF" x="14" y="28" width="2" height="2"></rect>
            <rect id="Rectangle-Copy-255" fill="#FFFFFF" x="16" y="30" width="2" height="2"></rect>
            <rect id="Rectangle-Copy-254" fill="#D8D8D8" x="16" y="28" width="2" height="2"></rect>
            <rect id="Rectangle-Copy-253" fill="#D8D8D8" x="18" y="30" width="2" height="2"></rect>
            <rect id="Rectangle-Copy-252" fill="#FFFFFF" x="18" y="28" width="2" height="2"></rect>
            <rect id="Rectangle-Copy-251" fill="#FFFFFF" x="20" y="30" width="2" height="2"></rect>
            <rect id="Rectangle-Copy-250" fill="#D8D8D8" x="20" y="28" width="2" height="2"></rect>
            <rect id="Rectangle-Copy-249" fill="#D8D8D8" x="22" y="30" width="2" height="2"></rect>
            <rect id="Rectangle-Copy-248" fill="#FFFFFF" x="22" y="28" width="2" height="2"></rect>
            <rect id="Rectangle-Copy-247" fill="#FFFFFF" x="24" y="30" width="2" height="2"></rect>
            <rect id="Rectangle-Copy-246" fill="#D8D8D8" x="24" y="28" width="2" height="2"></rect>
            <rect id="Rectangle-Copy-245" fill="#D8D8D8" x="26" y="30" width="2" height="2"></rect>
            <rect id="Rectangle-Copy-244" fill="#FFFFFF" x="26" y="28" width="2" height="2"></rect>
            <rect id="Rectangle-Copy-243" fill="#FFFFFF" x="28" y="30" width="2" height="2"></rect>
            <rect id="Rectangle-Copy-242" fill="#D8D8D8" x="28" y="28" width="2" height="2"></rect>
            <rect id="Rectangle-Copy-241" fill="#D8D8D8" x="30" y="30" width="2" height="2"></rect>
            <rect id="Rectangle-Copy-240" fill="#FFFFFF" x="30" y="28" width="2" height="2"></rect>
            <rect id="Rectangle-Copy-239" fill="#FFFFFF" x="32" y="30" width="2" height="2"></rect>
            <rect id="Rectangle-Copy-238" fill="#D8D8D8" x="32" y="28" width="2" height="2"></rect>
            <rect id="Rectangle-Copy-305" fill="#D8D8D8" x="0" y="32" width="2" height="2"></rect>
            <rect id="Rectangle-Copy-304" fill="#D8D8D8" x="2" y="34" width="2" height="2"></rect>
            <rect id="Rectangle-Copy-303" fill="#D8D8D8" x="4" y="32" width="2" height="2"></rect>
            <rect id="Rectangle-Copy-302" fill="#D8D8D8" x="6" y="34" width="2" height="2"></rect>
            <rect id="Rectangle-Copy-301" fill="#FFFFFF" x="2" y="32" width="2" height="2"></rect>
            <rect id="Rectangle-Copy-300" fill="#FFFFFF" x="4" y="34" width="2" height="2"></rect>
            <rect id="Rectangle-Copy-299" fill="#FFFFFF" x="0" y="34" width="2" height="2"></rect>
            <rect id="Rectangle-Copy-298" fill="#FFFFFF" x="6" y="32" width="2" height="2"></rect>
            <rect id="Rectangle-Copy-297" fill="#FFFFFF" x="8" y="34" width="2" height="2"></rect>
            <rect id="Rectangle-Copy-296" fill="#D8D8D8" x="8" y="32" width="2" height="2"></rect>
            <rect id="Rectangle-Copy-295" fill="#D8D8D8" x="10" y="34" width="2" height="2"></rect>
            <rect id="Rectangle-Copy-294" fill="#FFFFFF" x="10" y="32" width="2" height="2"></rect>
            <rect id="Rectangle-Copy-293" fill="#FFFFFF" x="12" y="34" width="2" height="2"></rect>
            <rect id="Rectangle-Copy-292" fill="#D8D8D8" x="12" y="32" width="2" height="2"></rect>
            <rect id="Rectangle-Copy-291" fill="#D8D8D8" x="14" y="34" width="2" height="2"></rect>
            <rect id="Rectangle-Copy-290" fill="#FFFFFF" x="14" y="32" width="2" height="2"></rect>
            <rect id="Rectangle-Copy-289" fill="#FFFFFF" x="16" y="34" width="2" height="2"></rect>
            <rect id="Rectangle-Copy-288" fill="#D8D8D8" x="16" y="32" width="2" height="2"></rect>
            <rect id="Rectangle-Copy-287" fill="#D8D8D8" x="18" y="34" width="2" height="2"></rect>
            <rect id="Rectangle-Copy-286" fill="#FFFFFF" x="18" y="32" width="2" height="2"></rect>
            <rect id="Rectangle-Copy-285" fill="#FFFFFF" x="20" y="34" width="2" height="2"></rect>
            <rect id="Rectangle-Copy-284" fill="#D8D8D8" x="20" y="32" width="2" height="2"></rect>
            <rect id="Rectangle-Copy-283" fill="#D8D8D8" x="22" y="34" width="2" height="2"></rect>
            <rect id="Rectangle-Copy-282" fill="#FFFFFF" x="22" y="32" width="2" height="2"></rect>
            <rect id="Rectangle-Copy-281" fill="#FFFFFF" x="24" y="34" width="2" height="2"></rect>
            <rect id="Rectangle-Copy-280" fill="#D8D8D8" x="24" y="32" width="2" height="2"></rect>
            <rect id="Rectangle-Copy-279" fill="#D8D8D8" x="26" y="34" width="2" height="2"></rect>
            <rect id="Rectangle-Copy-278" fill="#FFFFFF" x="26" y="32" width="2" height="2"></rect>
            <rect id="Rectangle-Copy-277" fill="#FFFFFF" x="28" y="34" width="2" height="2"></rect>
            <rect id="Rectangle-Copy-276" fill="#D8D8D8" x="28" y="32" width="2" height="2"></rect>
            <rect id="Rectangle-Copy-275" fill="#D8D8D8" x="30" y="34" width="2" height="2"></rect>
            <rect id="Rectangle-Copy-274" fill="#FFFFFF" x="30" y="32" width="2" height="2"></rect>
            <rect id="Rectangle-Copy-273" fill="#FFFFFF" x="32" y="34" width="2" height="2"></rect>
            <rect id="Rectangle-Copy-272" fill="#D8D8D8" x="32" y="32" width="2" height="2"></rect>
            <rect id="Rectangle-Copy-339" fill="#D8D8D8" x="0" y="36" width="2" height="2"></rect>
            <rect id="Rectangle-Copy-338" fill="#D8D8D8" x="2" y="38" width="2" height="2"></rect>
            <rect id="Rectangle-Copy-337" fill="#D8D8D8" x="4" y="36" width="2" height="2"></rect>
            <rect id="Rectangle-Copy-336" fill="#D8D8D8" x="6" y="38" width="2" height="2"></rect>
            <rect id="Rectangle-Copy-335" fill="#FFFFFF" x="2" y="36" width="2" height="2"></rect>
            <rect id="Rectangle-Copy-334" fill="#FFFFFF" x="4" y="38" width="2" height="2"></rect>
            <rect id="Rectangle-Copy-333" fill="#FFFFFF" x="0" y="38" width="2" height="2"></rect>
            <rect id="Rectangle-Copy-332" fill="#FFFFFF" x="6" y="36" width="2" height="2"></rect>
            <rect id="Rectangle-Copy-331" fill="#FFFFFF" x="8" y="38" width="2" height="2"></rect>
            <rect id="Rectangle-Copy-330" fill="#D8D8D8" x="8" y="36" width="2" height="2"></rect>
            <rect id="Rectangle-Copy-329" fill="#D8D8D8" x="10" y="38" width="2" height="2"></rect>
            <rect id="Rectangle-Copy-328" fill="#FFFFFF" x="10" y="36" width="2" height="2"></rect>
            <rect id="Rectangle-Copy-327" fill="#FFFFFF" x="12" y="38" width="2" height="2"></rect>
            <rect id="Rectangle-Copy-326" fill="#D8D8D8" x="12" y="36" width="2" height="2"></rect>
            <rect id="Rectangle-Copy-325" fill="#D8D8D8" x="14" y="38" width="2" height="2"></rect>
            <rect id="Rectangle-Copy-324" fill="#FFFFFF" x="14" y="36" width="2" height="2"></rect>
            <rect id="Rectangle-Copy-323" fill="#FFFFFF" x="16" y="38" width="2" height="2"></rect>
            <rect id="Rectangle-Copy-322" fill="#D8D8D8" x="16" y="36" width="2" height="2"></rect>
            <rect id="Rectangle-Copy-321" fill="#D8D8D8" x="18" y="38" width="2" height="2"></rect>
            <rect id="Rectangle-Copy-320" fill="#FFFFFF" x="18" y="36" width="2" height="2"></rect>
            <rect id="Rectangle-Copy-319" fill="#FFFFFF" x="20" y="38" width="2" height="2"></rect>
            <rect id="Rectangle-Copy-318" fill="#D8D8D8" x="20" y="36" width="2" height="2"></rect>
            <rect id="Rectangle-Copy-317" fill="#D8D8D8" x="22" y="38" width="2" height="2"></rect>
            <rect id="Rectangle-Copy-316" fill="#FFFFFF" x="22" y="36" width="2" height="2"></rect>
            <rect id="Rectangle-Copy-315" fill="#FFFFFF" x="24" y="38" width="2" height="2"></rect>
            <rect id="Rectangle-Copy-314" fill="#D8D8D8" x="24" y="36" width="2" height="2"></rect>
            <rect id="Rectangle-Copy-313" fill="#D8D8D8" x="26" y="38" width="2" height="2"></rect>
            <rect id="Rectangle-Copy-312" fill="#FFFFFF" x="26" y="36" width="2" height="2"></rect>
            <rect id="Rectangle-Copy-311" fill="#FFFFFF" x="28" y="38" width="2" height="2"></rect>
            <rect id="Rectangle-Copy-310" fill="#D8D8D8" x="28" y="36" width="2" height="2"></rect>
            <rect id="Rectangle-Copy-309" fill="#D8D8D8" x="30" y="38" width="2" height="2"></rect>
            <rect id="Rectangle-Copy-308" fill="#FFFFFF" x="30" y="36" width="2" height="2"></rect>
            <rect id="Rectangle-Copy-307" fill="#FFFFFF" x="32" y="38" width="2" height="2"></rect>
            <rect id="Rectangle-Copy-306" fill="#D8D8D8" x="32" y="36" width="2" height="2"></rect>
            <rect id="Rectangle-Copy-373" fill="#D8D8D8" x="0" y="40" width="2" height="2"></rect>
            <rect id="Rectangle-Copy-372" fill="#D8D8D8" x="2" y="42" width="2" height="2"></rect>
            <rect id="Rectangle-Copy-371" fill="#D8D8D8" x="4" y="40" width="2" height="2"></rect>
            <rect id="Rectangle-Copy-370" fill="#D8D8D8" x="6" y="42" width="2" height="2"></rect>
            <rect id="Rectangle-Copy-369" fill="#FFFFFF" x="2" y="40" width="2" height="2"></rect>
            <rect id="Rectangle-Copy-368" fill="#FFFFFF" x="4" y="42" width="2" height="2"></rect>
            <rect id="Rectangle-Copy-367" fill="#FFFFFF" x="0" y="42" width="2" height="2"></rect>
            <rect id="Rectangle-Copy-366" fill="#FFFFFF" x="6" y="40" width="2" height="2"></rect>
            <rect id="Rectangle-Copy-365" fill="#FFFFFF" x="8" y="42" width="2" height="2"></rect>
            <rect id="Rectangle-Copy-364" fill="#D8D8D8" x="8" y="40" width="2" height="2"></rect>
            <rect id="Rectangle-Copy-363" fill="#D8D8D8" x="10" y="42" width="2" height="2"></rect>
            <rect id="Rectangle-Copy-362" fill="#FFFFFF" x="10" y="40" width="2" height="2"></rect>
            <rect id="Rectangle-Copy-361" fill="#FFFFFF" x="12" y="42" width="2" height="2"></rect>
            <rect id="Rectangle-Copy-360" fill="#D8D8D8" x="12" y="40" width="2" height="2"></rect>
            <rect id="Rectangle-Copy-359" fill="#D8D8D8" x="14" y="42" width="2" height="2"></rect>
            <rect id="Rectangle-Copy-358" fill="#FFFFFF" x="14" y="40" width="2" height="2"></rect>
            <rect id="Rectangle-Copy-357" fill="#FFFFFF" x="16" y="42" width="2" height="2"></rect>
            <rect id="Rectangle-Copy-356" fill="#D8D8D8" x="16" y="40" width="2" height="2"></rect>
            <rect id="Rectangle-Copy-355" fill="#D8D8D8" x="18" y="42" width="2" height="2"></rect>
            <rect id="Rectangle-Copy-354" fill="#FFFFFF" x="18" y="40" width="2" height="2"></rect>
            <rect id="Rectangle-Copy-353" fill="#FFFFFF" x="20" y="42" width="2" height="2"></rect>
            <rect id="Rectangle-Copy-352" fill="#D8D8D8" x="20" y="40" width="2" height="2"></rect>
            <rect id="Rectangle-Copy-351" fill="#D8D8D8" x="22" y="42" width="2" height="2"></rect>
            <rect id="Rectangle-Copy-350" fill="#FFFFFF" x="22" y="40" width="2" height="2"></rect>
            <rect id="Rectangle-Copy-349" fill="#FFFFFF" x="24" y="42" width="2" height="2"></rect>
            <rect id="Rectangle-Copy-348" fill="#D8D8D8" x="24" y="40" width="2" height="2"></rect>
            <rect id="Rectangle-Copy-347" fill="#D8D8D8" x="26" y="42" width="2" height="2"></rect>
            <rect id="Rectangle-Copy-346" fill="#FFFFFF" x="26" y="40" width="2" height="2"></rect>
            <rect id="Rectangle-Copy-345" fill="#FFFFFF" x="28" y="42" width="2" height="2"></rect>
            <rect id="Rectangle-Copy-344" fill="#D8D8D8" x="28" y="40" width="2" height="2"></rect>
            <rect id="Rectangle-Copy-343" fill="#D8D8D8" x="30" y="42" width="2" height="2"></rect>
            <rect id="Rectangle-Copy-342" fill="#FFFFFF" x="30" y="40" width="2" height="2"></rect>
            <rect id="Rectangle-Copy-341" fill="#FFFFFF" x="32" y="42" width="2" height="2"></rect>
            <rect id="Rectangle-Copy-340" fill="#D8D8D8" x="32" y="40" width="2" height="2"></rect>
        </g>
        <path d="M19,47.1666667 C19,47.625 18.64375,48 18.2083333,48 L0.791666667,48 C0.35625,48 0,47.625 0,47.1666667 L0,38.8333333 C0,38.375 0.35625,38 0.791666667,38 L18.2083333,38 C18.64375,38 19,38.375 19,38.8333333 L19,47.1666667 Z" id="Path" fill="#A528C8" fill-rule="nonzero"></path>
        <text id="PNG" font-family="Rubik-Medium, Rubik" font-size="7" font-weight="400" line-spacing="7" letter-spacing="0.252661" fill="#FFFFFF">
            <tspan x="2" y="46.5">PNG</tspan>
        </text>
        <circle id="Oval-Copy" fill="#EAEAEA" cx="43" cy="13" r="4"></circle>
        <polygon id="Triangle-Copy-2" fill="#EAEAEA" points="30 35 43 52 17 52"></polygon>
        <polygon id="Triangle-Copy-3" fill="#EAEAEA" points="39 39 49 52 44 52 36.463482 42.2974734"></polygon>
    </g>
</svg>